<svg version="1.1" xmlns="http://www.w3.org/2000/svg" xmlns:xlink="http://www.w3.org/1999/xlink" viewBox="73.288 0.027 448.691 841.729" enable-background="new 73.288 0.027 448.691 841.729" xml:space="preserve">
    <path d="M361.724,76.736c-46.447,0.03-84.075,37.707-84.046,84.154s37.706,84.076,84.153,84.047c46.438-0.03,84.062-37.69,84.047-84.127C445.804,114.376,408.157,76.766,361.724,76.736z M361.724,211.178v-0.053c-27.817,0.014-50.381-22.524-50.396-50.343c-0.015-27.818,22.524-50.381,50.342-50.396c27.818-0.015,50.381,22.524,50.396,50.342C412.067,188.549,389.545,211.119,361.724,211.178z"/>
    <path d="M241.076,0.027c-27.121,0.015-49.094,22.012-49.079,49.132s22.012,49.094,49.133,49.079c27.109-0.016,49.078-21.996,49.078-49.106C290.194,22.008,268.2,0.027,241.076,0.027z M241.774,70.606c-0.09,0.001-0.179,0.001-0.268,0.001c-4.808,0.069-9.514-1.39-13.438-4.166c-4.576-4.101-7.154-9.982-7.069-16.126c-0.134-11.34,8.951-20.641,20.291-20.775c11.341-0.134,20.642,8.951,20.775,20.291C262.198,61.171,253.114,70.473,241.774,70.606z"/>
    <path d="M518.024,774.48l-93.911-244.237c-8.063-20.83-13.438-57.626-13.438-79.746v-57.196l2.446-1.021c27.146-7.311,45.396-30.372,45.396-56.443c0-32.818-29.216-59.319-64.237-59.319H211.752c-34.94,0-63.485,26.501-63.485,59.319c0.178,25.054,16.294,47.212,40.075,55.099l2.365,1.129v53.755c0,22.147-5.833,58.298-14.084,78.939L77.337,773.352c-6.451,16.127-5.08,34.484,3.306,46.902c9.202,13.382,24.372,21.413,40.612,21.502h352.931c16.15-0.13,31.212-8.163,40.316-21.502C523.076,807.89,524.313,790.527,518.024,774.48L518.024,774.48z M206.699,537.313c9.918-24.701,15.401-64.91,15.401-91.546v-85.579h-10.752c-16.287,0-29.565-12.149-29.565-25.991s13.627-26.367,29.781-26.367h182.633c16.127,0,29.808,12.391,29.808,26.367s-13.707,25.991-31.877,25.991h-12.955v90.255c0,26.636,4.999,66.791,14.676,91.384l16.503,48.649H187.589L206.699,537.313z M486.765,801.843c-2.097,3.037-6.666,8.627-12.552,8.627H121.309c-5.993,0-10.401-5.536-12.444-8.573s-1.881-11.611,0.322-17.095L174.07,622.03h249.425l63.136,162.503C488.781,790.097,488.834,798.859,486.765,801.843L486.765,801.843z"/>
</svg>
