<svg version="1.1" xmlns="http://www.w3.org/2000/svg" xmlns:xlink="http://www.w3.org/1999/xlink" viewBox="95.989 -0.092 403.28 841.982" enable-background="new 95.989 -0.092 403.28 841.982" xml:space="preserve">
    <path d="M499.269,639.191l-73.282-186.427c7.923-30.32,14.161-61.055,18.688-92.063C469.992,185.046,421.659,61.268,305.063,2.831l-5.823-2.923l-5.823,2.923C176.865,61.36,128.003,185.092,152.077,360.702c3.875,27.812,9.145,55.412,15.789,82.695L95.989,638.523l123.87-38.137c1.52,3.521,2.509,5.501,2.762,6.053l3.499,7.435h142.696l3.499-7.342c0.275-0.622,1.427-3.016,3.245-7.135L499.269,639.191z M454.963,597.625l-69.23-22.21c7.917-19.771,18.412-47.804,28.563-81.223L454.963,597.625z M138.59,598.224l39.933-108.404l7.318,18.413c8.724,27.757,17.331,51.117,24.052,68.126L138.59,598.224z M293.739,588.557h-47.826l-33.741-84.56C169.592,369.24,122.203,123.87,299.24,29.276c157.474,84.146,135.953,287.696,98.646,426.342l-37.953,114.065c-3.176,7.94-5.846,14.293-7.779,18.896h-58.414V588.557z"/>
    <path d="M298.449,635.51c-0.046,0-0.092,0-0.139,0c-21.608,0-39.126,17.518-39.126,39.126l38.735,167.255l39.311-164.217l0.345-3.038C337.575,653.027,320.058,635.51,298.449,635.51z M298.15,728.838l-12.935-55.398c0.679-7.239,7.098-12.558,14.337-11.878c6.299,0.591,11.287,5.579,11.878,11.878L298.15,728.838z"/>
    <path d="M298.379,154.757c-38.464,0-69.645,31.182-69.645,69.646s31.181,69.646,69.645,69.646s69.646-31.182,69.646-69.646c0-0.008,0-0.015,0-0.022C367.974,185.94,336.819,154.795,298.379,154.757z M298.379,267.995c-24.087,0-43.614-19.527-43.614-43.614c0-24.088,19.527-43.615,43.614-43.615c24.088,0,43.615,19.527,43.615,43.615C341.931,248.441,322.441,267.931,298.379,267.995z"/>
</svg>
